<?xml version="1.0" encoding="UTF-8"?>
<svg xmlns="http://www.w3.org/2000/svg" xmlns:xlink="http://www.w3.org/1999/xlink" width="50px" height="50px" viewBox="0 0 50 50" version="1.1">
<g id="surface1">
<path style=" stroke:none;fill-rule:nonzero;fill:rgb(0%,37.647059%,19.607843%);fill-opacity:1;" d="M 23.65625 0 L 26.25 0 L 26.53125 0.1875 L 27.0625 0.46875 L 27.375 0.65625 L 27.78125 0.9375 L 28.09375 1.21875 L 28.25 1.34375 L 28.46875 1.59375 L 28.71875 1.90625 L 29.03125 2.375 L 29.28125 2.84375 L 29.46875 3.34375 L 29.59375 3.875 L 29.65625 4.4375 L 29.6875 5.375 L 29.6875 20.28125 L 44.96875 20.28125 L 45.9375 20.34375 L 46.46875 20.4375 L 47.125 20.65625 L 47.65625 20.9375 L 48.03125 21.21875 L 48.4375 21.5625 L 48.84375 21.96875 L 49.28125 22.5625 L 49.71875 23.3125 L 49.9375 23.75 L 50 23.9375 L 50 26.15625 L 49.59375 26.875 L 49.34375 27.3125 L 49.03125 27.71875 L 48.75 28.03125 L 48.25 28.53125 L 47.71875 28.9375 L 47.21875 29.21875 L 46.8125 29.375 L 46 29.5625 L 45.15625 29.65625 L 43.8125 29.6875 L 29.6875 29.6875 L 29.6875 37.375 L 29.65625 44.96875 L 29.59375 45.9375 L 29.46875 46.59375 L 29.21875 47.21875 L 29.03125 47.5625 L 28.71875 48 L 28.46875 48.3125 L 28.09375 48.71875 L 27.78125 49 L 27.34375 49.3125 L 26.6875 49.65625 L 26.1875 49.875 L 26 50 L 23.9375 50 L 23.6875 49.90625 L 23.1875 49.625 L 22.59375 49.3125 L 22.09375 48.9375 L 21.6875 48.5625 L 21.46875 48.3125 L 21.15625 47.9375 L 20.75 47.28125 L 20.5 46.6875 L 20.3125 45.875 L 20.25 45.3125 L 20.21875 43.9375 L 20.21875 37.75 L 20.25 29.6875 L 5.59375 29.6875 L 4.4375 29.65625 L 3.71875 29.5625 L 3.1875 29.40625 L 2.71875 29.21875 L 2.25 28.96875 L 1.875 28.6875 L 1.5625 28.40625 L 1.3125 28.1875 L 1.09375 27.96875 L 0.84375 27.65625 L 0.625 27.3125 L 0.21875 26.5625 L 0 26.1875 L 0 23.75 L 0.375 23.0625 L 0.78125 22.40625 L 0.96875 22.15625 L 1.21875 21.84375 L 1.59375 21.46875 L 2.125 21.0625 L 2.53125 20.8125 L 2.96875 20.59375 L 3.40625 20.4375 L 4.03125 20.3125 L 4.375 20.28125 L 20.21875 20.28125 L 20.21875 5.21875 L 20.25 4.5 L 20.3125 4 L 20.46875 3.375 L 20.6875 2.78125 L 21 2.21875 L 21.28125 1.8125 L 21.5625 1.46875 L 21.625 1.46875 L 21.6875 1.34375 L 21.75 1.34375 L 21.78125 1.25 L 22.125 0.96875 L 22.625 0.625 L 23.5 0.125 Z M 23.65625 0 "/>
</g>
</svg>
