<?xml version="1.0" encoding="UTF-8"?>
<svg xmlns="http://www.w3.org/2000/svg" xmlns:xlink="http://www.w3.org/1999/xlink" width="50px" height="50px" viewBox="0 0 50 50" version="1.1">
<g id="surface1">
<path style=" stroke:none;fill-rule:nonzero;fill:rgb(0%,37.647059%,20%);fill-opacity:1;" d="M 4.1875 25.65625 L 15.1875 25.6875 L 17.0625 25.6875 L 17.1875 25.8125 L 17.375 26.59375 L 17.59375 27.21875 L 17.96875 28 L 18.3125 28.59375 L 18.5625 28.96875 L 18.84375 29.34375 L 19.1875 29.78125 L 19.59375 30.1875 L 20.03125 30.53125 L 20.40625 30.8125 L 21.03125 31.1875 L 21.75 31.5625 L 22.46875 31.84375 L 23.15625 32.0625 L 23.75 32.1875 L 24.65625 32.28125 L 25.40625 32.28125 L 26.28125 32.1875 L 27 32.03125 L 27.8125 31.78125 L 28.375 31.53125 L 28.90625 31.25 L 29.46875 30.90625 L 30.0625 30.46875 L 30.375 30.1875 L 30.4375 30.1875 L 30.4375 30.125 L 30.6875 29.90625 L 30.90625 29.6875 L 31.125 29.4375 L 31.46875 28.96875 L 31.75 28.5 L 32.09375 27.84375 L 32.40625 27.15625 L 32.6875 26.40625 L 32.84375 25.75 L 32.875 25.6875 L 45.875 25.6875 L 45.875 27.28125 L 45.84375 43.3125 L 45.78125 43.96875 L 45.59375 44.875 L 45.34375 45.6875 L 44.90625 46.53125 L 44.59375 47.03125 L 44.15625 47.625 L 43.8125 48 L 43.59375 48.25 L 43.28125 48.53125 L 42.9375 48.8125 L 42.5625 49.09375 L 42 49.40625 L 41.40625 49.625 L 41.28125 49.78125 L 41.1875 49.9375 L 41.125 50 L 33.8125 50 L 33.40625 48.375 L 33.15625 47.6875 L 32.9375 47.1875 L 32.53125 46.46875 L 32.15625 45.90625 L 31.875 45.5625 L 31.3125 44.9375 L 30.9375 44.59375 L 30.46875 44.21875 L 30 43.90625 L 29.4375 43.59375 L 28.90625 43.34375 L 28.21875 43.09375 L 27.625 42.9375 L 27.15625 42.84375 L 26.375 42.75 L 25.875 42.71875 L 23.96875 42.71875 L 23 42.8125 L 22.21875 42.96875 L 21.46875 43.1875 L 20.75 43.5 L 20.21875 43.78125 L 19.46875 44.28125 L 19.0625 44.625 L 18.8125 44.84375 L 18.4375 45.1875 L 18.15625 45.53125 L 17.90625 45.84375 L 17.6875 46.1875 L 17.40625 46.65625 L 17.125 47.15625 L 16.8125 47.875 L 16.5625 48.625 L 16.3125 49.8125 L 16.28125 50 L 8.875 50 L 8.71875 49.75 L 7.8125 49.3125 L 7.4375 49.0625 L 7.03125 48.71875 L 6.5625 48.3125 L 6.03125 47.78125 L 5.75 47.4375 L 5.40625 46.96875 L 5.125 46.5 L 4.78125 45.84375 L 4.5 45.125 L 4.3125 44.3125 L 4.1875 43.6875 L 4.125 42.90625 L 4.09375 29.1875 L 4.125 25.71875 Z M 4.1875 25.65625 "/>
<path style=" stroke:none;fill-rule:nonzero;fill:rgb(0%,37.647059%,20%);fill-opacity:1;" d="M 8.78125 0 L 16.3125 0 L 16.5625 1.34375 L 16.71875 1.875 L 17.09375 2.75 L 17.5 3.5 L 17.84375 4 L 18.1875 4.4375 L 18.65625 4.9375 L 18.90625 5.1875 L 19.25 5.46875 L 19.65625 5.78125 L 20.25 6.15625 L 20.78125 6.4375 L 21.375 6.6875 L 22.15625 6.9375 L 22.6875 7.0625 L 23.78125 7.1875 L 24.3125 7.21875 L 25.78125 7.21875 L 26.75 7.15625 L 27.5 7.03125 L 28.4375 6.78125 L 29.21875 6.46875 L 29.75 6.1875 L 30.1875 5.90625 L 30.625 5.59375 L 31.03125 5.25 L 31.28125 5.03125 L 31.96875 4.34375 L 32.375 3.78125 L 32.71875 3.21875 L 32.96875 2.71875 L 33.21875 2.09375 L 33.4375 1.40625 L 33.6875 0.34375 L 33.75 0 L 41.28125 0 L 41.34375 0.15625 L 41.65625 0.34375 L 42.5 0.8125 L 42.96875 1.15625 L 43.3125 1.4375 L 43.5 1.59375 L 43.71875 1.84375 L 44.03125 2.15625 L 44.40625 2.65625 L 44.71875 3.09375 L 45.0625 3.6875 L 45.34375 4.28125 L 45.5625 4.9375 L 45.8125 5.9375 L 45.84375 6.21875 L 45.875 19.375 L 45.90625 22.5 L 45.84375 22.59375 L 45.4375 22.65625 L 44.71875 22.65625 L 42.71875 22.625 L 40.09375 22.625 L 35.9375 22.6875 L 33.625 22.6875 L 33.125 22.65625 L 33 22.53125 L 32.75 21.90625 L 32.4375 21.15625 L 32.0625 20.4375 L 31.625 19.6875 L 31.3125 19.1875 L 30.96875 18.75 L 30.6875 18.4375 L 30.28125 18.03125 L 29.9375 17.75 L 29.46875 17.40625 L 28.8125 17 L 28.09375 16.65625 L 27.3125 16.375 L 26.6875 16.21875 L 25.90625 16.09375 L 25.5625 16.0625 L 24.3125 16.0625 L 23.5625 16.15625 L 22.75 16.34375 L 22.09375 16.5625 L 21.59375 16.78125 L 20.96875 17.125 L 20.3125 17.5625 L 19.9375 17.84375 L 19.3125 18.40625 L 18.96875 18.78125 L 18.6875 19.1875 L 18.28125 19.84375 L 17.875 20.59375 L 17.46875 21.5 L 17.21875 22.25 L 17.09375 22.5625 L 17.03125 22.625 L 8.71875 22.625 L 6.53125 22.65625 L 4.34375 22.65625 L 4.15625 22.59375 L 4.09375 22.5 L 4.0625 22.28125 L 4.0625 20.34375 L 4.09375 18.1875 L 4.125 7.34375 L 4.1875 6.34375 L 4.3125 5.5 L 4.53125 4.6875 L 4.71875 4.1875 L 5.0625 3.5 L 5.25 3.1875 L 5.65625 2.59375 L 6 2.1875 L 6.28125 1.875 L 6.71875 1.4375 L 7.09375 1.09375 L 7.53125 0.78125 L 8.125 0.46875 L 8.5625 0.25 Z M 8.78125 0 "/>
<path style=" stroke:none;fill-rule:nonzero;fill:rgb(0%,37.647059%,20%);fill-opacity:1;" d="M 23.8125 45.6875 L 25.78125 45.6875 L 26.59375 45.75 L 27.125 45.84375 L 27.75 46.03125 L 28.46875 46.375 L 28.90625 46.6875 L 29.375 47.125 L 29.71875 47.5625 L 30 47.96875 L 30.25 48.40625 L 30.5625 49.21875 L 30.71875 49.84375 L 30.71875 50 L 19.1875 50 L 19.28125 49.625 L 19.65625 48.65625 L 20 48 L 20.21875 47.6875 L 20.46875 47.375 L 20.8125 47 L 21.21875 46.65625 L 21.6875 46.34375 L 22.15625 46.09375 L 22.84375 45.84375 L 23.28125 45.75 Z M 23.8125 45.6875 "/>
<path style=" stroke:none;fill-rule:nonzero;fill:rgb(0%,37.647059%,20%);fill-opacity:1;" d="M 19.28125 0 L 30.78125 0 L 30.65625 0.5 L 30.40625 1.25 L 30.0625 1.90625 L 29.84375 2.21875 L 29.59375 2.53125 L 29.125 3.03125 L 28.875 3.25 L 28.4375 3.5625 L 27.9375 3.8125 L 27.15625 4.09375 L 26.59375 4.21875 L 25.9375 4.28125 L 24.84375 4.3125 L 23.9375 4.28125 L 23.15625 4.1875 L 22.59375 4.03125 L 22 3.78125 L 21.53125 3.53125 L 21.03125 3.15625 L 20.65625 2.8125 L 20.40625 2.53125 L 20.03125 2 L 19.84375 1.65625 L 19.5625 1.03125 L 19.3125 0.28125 Z M 19.28125 0 "/>
<path style=" stroke:none;fill-rule:nonzero;fill:rgb(0%,37.647059%,20%);fill-opacity:1;" d="M 24.53125 19 L 25.46875 19 L 26.1875 19.09375 L 26.75 19.25 L 27.3125 19.5 L 27.84375 19.84375 L 28.1875 20.125 L 28.5625 20.46875 L 28.90625 20.84375 L 29.25 21.28125 L 29.5 21.6875 L 29.84375 22.28125 L 29.96875 22.5625 L 29.96875 22.625 L 29.84375 22.65625 L 28.375 22.6875 L 20.90625 22.6875 L 20.0625 22.65625 L 20.03125 22.5625 L 20.25 22.125 L 20.5625 21.65625 L 20.875 21.21875 L 21.4375 20.53125 L 21.71875 20.25 L 22.25 19.84375 L 22.71875 19.53125 L 23.375 19.21875 L 24.03125 19.0625 Z M 24.53125 19 "/>
<path style=" stroke:none;fill-rule:nonzero;fill:rgb(0%,37.647059%,20%);fill-opacity:1;" d="M 20 25.65625 L 20.5625 25.6875 L 30 25.6875 L 29.96875 25.8125 L 29.59375 26.40625 L 29.21875 27.03125 L 28.96875 27.375 L 28.65625 27.78125 L 28.46875 28 L 28.125 28.28125 L 27.78125 28.53125 L 27.46875 28.71875 L 26.9375 28.9375 L 26.40625 29.09375 L 25.78125 29.21875 L 25.28125 29.28125 L 24.4375 29.28125 L 23.65625 29.15625 L 23.21875 29.03125 L 22.71875 28.78125 L 22.21875 28.5 L 21.78125 28.15625 L 21.3125 27.6875 L 20.96875 27.25 L 20.65625 26.8125 L 20.25 26.15625 L 20 25.71875 Z M 20 25.65625 "/>
</g>
</svg>
