<?xml version="1.0" encoding="UTF-8"?>
<svg xmlns="http://www.w3.org/2000/svg" xmlns:xlink="http://www.w3.org/1999/xlink" width="50px" height="50px" viewBox="0 0 50 50" version="1.1">
<g id="surface1">
<path style=" stroke:none;fill-rule:nonzero;fill:rgb(0%,37.254902%,19.215686%);fill-opacity:1;" d="M 6.1875 0 L 37.4375 0 L 37.53125 0.15625 L 37.8125 0.34375 L 38.3125 0.65625 L 38.6875 0.9375 L 38.96875 1.1875 L 39.25 1.53125 L 39.46875 1.78125 L 39.78125 2.25 L 40.125 2.96875 L 40.25 3.40625 L 40.28125 3.71875 L 40.3125 4.96875 L 40.3125 8.4375 L 41 8.40625 L 44.03125 8.375 L 46.6875 8.375 L 46.75 8.4375 L 46.75 27.34375 L 46.625 27.40625 L 46.40625 27.4375 L 35.09375 27.4375 L 23.25 27.46875 L 23.28125 27.75 L 23.28125 29.375 L 23.25 31.5625 L 24.6875 31.5625 L 27.0625 31.59375 L 27.09375 31.625 L 27.125 31.875 L 27.125 50 L 16.46875 50 L 16.4375 49.8125 L 16.40625 49.15625 L 16.40625 31.84375 L 16.4375 31.5625 L 20.21875 31.5625 L 20.25 30.5 L 20.28125 24.5625 L 20.3125 24.53125 L 36.5 24.53125 L 43.65625 24.5 L 43.75 24.46875 L 43.75 17.125 L 43.78125 12.625 L 43.78125 11.25 L 43.625 11.21875 L 43.125 11.25 L 40.84375 11.3125 L 40.125 11.34375 L 40.0625 11.53125 L 39.96875 11.65625 L 39.5 11.75 L 38.71875 11.8125 L 38.0625 11.84375 L 37.3125 11.84375 L 36.84375 11.75 L 36.59375 11.53125 L 36.125 11.09375 L 35.875 10.8125 L 35.71875 10.40625 L 35.625 9.875 L 35.53125 8.96875 L 35.40625 8.4375 L 35.15625 7.8125 L 34.78125 7.09375 L 34.46875 6.6875 L 34.125 6.3125 L 33.8125 6.03125 L 33.34375 5.71875 L 32.6875 5.375 L 32.15625 5.1875 L 31.375 5 L 30.75 4.9375 L 29.25 4.9375 L 28.625 5 L 27.90625 5.15625 L 27.40625 5.34375 L 26.90625 5.59375 L 26.34375 6 L 25.96875 6.34375 L 25.625 6.6875 L 25.25 7.21875 L 25 7.65625 L 24.75 8.3125 L 24.5625 8.96875 L 24.4375 9.71875 L 24.34375 10.375 L 24.21875 10.78125 L 24 11.09375 L 23.5625 11.53125 L 23.1875 11.71875 L 22.71875 11.8125 L 22.1875 11.84375 L 20.90625 11.84375 L 20.375 11.75 L 20.1875 11.65625 L 19.78125 11.3125 L 19.78125 11.25 L 19.71875 11.25 L 19.5 11 L 19.3125 10.71875 L 19.15625 10.3125 L 19.09375 9.84375 L 19 9.03125 L 18.90625 8.5 L 18.75 8.03125 L 18.375 7.3125 L 18.125 6.9375 L 17.875 6.625 L 17.59375 6.3125 L 17.28125 6.03125 L 16.875 5.75 L 16.15625 5.375 L 15.75 5.21875 L 15 5.03125 L 14.625 4.96875 L 14.15625 4.9375 L 12.96875 4.9375 L 12.21875 5 L 11.40625 5.15625 L 10.875 5.34375 L 10.21875 5.6875 L 9.78125 6 L 9.46875 6.25 L 9.09375 6.625 L 8.78125 7.0625 L 8.59375 7.40625 L 8.34375 7.90625 L 8.15625 8.46875 L 8.03125 8.96875 L 7.96875 9.46875 L 7.96875 9.71875 L 7.8125 10.40625 L 7.65625 10.8125 L 7.46875 11.0625 L 7.1875 11.375 L 6.875 11.59375 L 6.53125 11.75 L 6.21875 11.8125 L 5.90625 11.84375 L 4.46875 11.84375 L 4 11.78125 L 3.625 11.65625 L 3.375 11.46875 L 3.25 11.21875 L 3.1875 10.59375 L 3.1875 9.03125 L 3.21875 5.84375 L 3.25 3.90625 L 3.3125 3.40625 L 3.4375 2.9375 L 3.6875 2.375 L 4.09375 1.71875 L 4.34375 1.40625 L 4.84375 0.90625 L 5.28125 0.59375 L 5.59375 0.40625 L 5.90625 0.25 L 6.09375 0.09375 Z M 6.1875 0 "/>
<path style=" stroke:none;fill-rule:nonzero;fill:rgb(0%,37.254902%,19.215686%);fill-opacity:1;" d="M 30.03125 7.8125 L 30.875 7.84375 L 31.34375 7.9375 L 31.875 8.1875 L 32.1875 8.4375 L 32.46875 8.78125 L 32.65625 9.1875 L 32.71875 9.40625 L 32.78125 9.875 L 32.84375 10.53125 L 33.03125 11.3125 L 33.28125 12 L 33.53125 12.46875 L 33.90625 13 L 34.34375 13.4375 L 34.78125 13.78125 L 35.1875 14.0625 L 35.71875 14.34375 L 36.1875 14.53125 L 36.875 14.6875 L 37.375 14.75 L 37.8125 14.78125 L 39 14.78125 L 40.03125 14.65625 L 40.34375 14.65625 L 40.375 14.6875 L 40.40625 15 L 40.34375 16 L 40.25 16.5 L 40.0625 17 L 39.71875 17.65625 L 39.34375 18.1875 L 39 18.5625 L 38.78125 18.78125 L 38.3125 19.125 L 37.65625 19.46875 L 37.125 19.625 L 36.65625 19.71875 L 35.96875 19.78125 L 34.5625 19.8125 L 7.40625 19.78125 L 6.8125 19.71875 L 6.28125 19.59375 L 5.78125 19.375 L 5.3125 19.09375 L 4.90625 18.78125 L 4.4375 18.3125 L 4.125 17.90625 L 3.8125 17.375 L 3.53125 16.75 L 3.34375 16.03125 L 3.25 15.21875 L 3.25 14.71875 L 3.375 14.6875 L 4.3125 14.75 L 5.15625 14.78125 L 5.75 14.78125 L 6.5 14.71875 L 7.15625 14.625 L 7.8125 14.40625 L 8.3125 14.15625 L 8.8125 13.875 L 9.3125 13.5 L 9.53125 13.3125 L 9.8125 12.96875 L 10.0625 12.625 L 10.34375 12.125 L 10.5 11.78125 L 10.6875 11.125 L 10.78125 10.625 L 10.875 9.71875 L 11.03125 9.09375 L 11.375 8.5625 L 11.65625 8.3125 L 12.0625 8.0625 L 12.375 7.9375 L 12.90625 7.84375 L 14.34375 7.84375 L 14.84375 7.96875 L 15.34375 8.21875 L 15.625 8.4375 L 15.875 8.75 L 16.09375 9.1875 L 16.1875 9.5625 L 16.21875 9.78125 L 16.25 10.40625 L 16.40625 11.09375 L 16.59375 11.65625 L 16.875 12.25 L 17.15625 12.6875 L 17.5 13.125 L 17.875 13.5 L 18.21875 13.78125 L 18.71875 14.125 L 19.25 14.375 L 19.78125 14.5625 L 20.40625 14.6875 L 21.28125 14.78125 L 22.53125 14.78125 L 23.46875 14.65625 L 24.0625 14.5 L 24.71875 14.25 L 25.15625 14 L 25.625 13.65625 L 25.9375 13.375 L 26.375 12.9375 L 26.59375 12.625 L 26.90625 12.09375 L 27.125 11.53125 L 27.28125 10.96875 L 27.375 10.46875 L 27.40625 10.125 L 27.40625 9.59375 L 27.53125 9.1875 L 27.75 8.84375 L 27.96875 8.5625 L 28.0625 8.4375 L 28.125 8.4375 L 28.125 8.375 L 28.53125 8.09375 L 28.90625 7.9375 L 29.375 7.84375 Z M 30.03125 7.8125 "/>
</g>
</svg>
